<?xml version="1.0" encoding="UTF-8" standalone="no"?>
<!-- Created with Inkscape (http://www.inkscape.org/) -->

<svg
   width="148.8606mm"
   height="119.7951mm"
   viewBox="0 0 148.8606 119.7951"
   version="1.1"
   id="svg3498"
   inkscape:version="1.2.2 (732a01da63, 2022-12-09)"
   sodipodi:docname="nonexisten_logo.svg"
   xmlns:inkscape="http://www.inkscape.org/namespaces/inkscape"
   xmlns:sodipodi="http://sodipodi.sourceforge.net/DTD/sodipodi-0.dtd"
   xmlns="http://www.w3.org/2000/svg"
   xmlns:svg="http://www.w3.org/2000/svg">
  <sodipodi:namedview
     id="namedview3500"
     pagecolor="#ffffff"
     bordercolor="#000000"
     borderopacity="0.25"
     inkscape:showpageshadow="2"
     inkscape:pageopacity="0.0"
     inkscape:pagecheckerboard="0"
     inkscape:deskcolor="#d1d1d1"
     inkscape:document-units="mm"
     showgrid="false"
     inkscape:zoom="0.69130191"
     inkscape:cx="-2.893092"
     inkscape:cy="215.53535"
     inkscape:window-width="2304"
     inkscape:window-height="1190"
     inkscape:window-x="2293"
     inkscape:window-y="-11"
     inkscape:window-maximized="1"
     inkscape:current-layer="layer1" />
  <defs
     id="defs3495" />
  <g
     inkscape:label="Layer 1"
     inkscape:groupmode="layer"
     id="layer1"
     transform="translate(-35.16586,-91.472935)">
    <ellipse
       style="fill:#4aa7fc;fill-opacity:0.779661;stroke-width:0.264583"
       id="path3606"
       cx="108.31314"
       cy="151.37048"
       rx="62.002575"
       ry="59.897549" />
    <path
       style="fill:#f9f9f9;fill-opacity:0.779661;stroke-width:0.264583"
       d="m 48.224225,157.68557 c -1.338286,-1.47983 -1.533909,-2.67167 -0.765463,-4.59279 1.77148,-4.4287 8.603641,-4.93944 12.630155,-6.12371 4.422211,-1.30065 9.087408,-3.81742 7.271906,3.44459 -0.51816,2.07264 -3.041293,6.31001 -4.592783,7.65464 -1.12431,0.9744 -2.575819,1.49185 -3.82732,2.29639 -0.516757,0.3322 -2.038852,1.762 -3.061856,1.1482 -1.537499,-0.92251 -3.218069,-4.7438 -1.148194,-6.12372 1.378183,-0.91879 10.011172,-3.50493 11.099226,-3.82732 4.900226,-1.45192 11.256283,-2.79196 16.074742,-0.38273"
       id="path4505" />
    <path
       style="fill:#f9f9f9;fill-opacity:0.779661;stroke-width:0.264583"
       d="m 41.335052,157.30283 c 5.23067,-2.8067 9.921071,-7.02951 15.692009,-8.4201 15.843003,-3.81759 11.505014,-0.0361 19.902061,2.29639 0.991039,0.27529 2.05146,0.19028 3.061856,0.38273 1.672032,0.31849 3.319709,0.75396 4.975516,1.1482 2.162691,0.51493 4.309364,1.16475 6.506443,1.53093 1.965301,0.32755 4.534347,0 6.506443,0 0.382733,0 0.796409,0.15076 1.148196,0 0.786617,-0.33712 1.553334,-0.7236 2.296394,-1.1482 0.55384,-0.31648 0.54304,-1.32921 1.14819,-1.53093 0.27064,-0.0902 0.42044,0.4827 0.38274,0.76547 -0.22496,1.68716 -0.58903,3.36789 -1.1482,4.97551 -1.70272,4.89532 -4.920939,8.14683 -8.420103,11.86469 -0.370965,0.39415 -0.765464,0.76547 -1.148197,1.1482 -0.127577,0.12758 -0.202311,0.38273 -0.38273,0.38273 -1.243245,0 -2.564048,-1.59116 -3.061856,-2.29639 -3.026262,-4.2872 -5.886929,-10.84116 -3.44459,-16.07474 0.345454,-0.74026 1.36719,-0.92374 1.91366,-1.53093 1.735289,-1.9281 1.889308,-3.60928 4.592786,-4.21005 3.966832,-0.88152 6.451743,0.16402 9.95103,1.91366 0.64008,0.32004 2.02166,-0.21601 2.29639,-0.76547 0.81029,-1.62057 0.29141,-3.49024 0.38273,-3.44458 0.32275,0.16137 0.65136,0.42314 0.76547,0.76546 0.94693,2.84078 0.41864,5.61695 1.91366,8.4201 0.42452,0.79598 1.30683,1.24616 1.91366,1.91366 1.70289,1.87319 2.92996,3.62147 5.35824,4.59279 0.11846,0.0474 0.38274,0.12757 0.38274,0 0,-0.18043 -0.28991,-0.22802 -0.38274,-0.38273 -0.82136,-1.36894 -4.64833,-9.06966 -3.06185,-9.95104 0.91964,-0.51091 2.03843,-0.52179 3.06185,-0.76546 6.54339,-1.55795 11.66707,-1.53093 18.37114,-1.53093 1.02062,0 2.04124,0 3.06185,0 0.51031,0 1.02062,0 1.53093,0 0.12758,0 0.38273,0.12758 0.38273,0 0,-3.01618 -7.51042,-8.30084 -10.33376,-6.88917 -2.61997,1.30998 -2.38921,11.04079 -2.29639,12.24742 0.13718,1.78341 1.90033,4.94885 2.67912,6.50644 0.82247,1.64494 1.1482,2.38303 1.1482,1.91366 0,-0.28527 -0.34239,-0.48306 -0.38273,-0.76546 -0.1406,-0.98414 0.14757,-4.43802 0.38273,-4.97552 2.51123,-5.73995 10.03684,-6.37872 15.30928,-5.35824 2.09962,0.40637 4.08771,1.25923 6.12371,1.91366 6.20776,1.99535 2.68439,0.82637 6.50644,2.29639 1.01737,0.39129 2.02777,0.8035 3.06186,1.14819 0.12103,0.0403 0.35179,0.12377 0.38273,0 0.66203,-2.64811 -0.27838,-6.57608 -1.53093,-8.80283 -1.0534,-1.87272 -4.94996,-4.06834 -6.88917,-1.91366 -1.76811,1.96456 -8.43935,14.86589 -8.80284,15.69201 -0.16248,0.36927 -0.0152,1.21452 0.38273,1.1482 0.97321,-0.16221 3.48688,-3.33213 3.82732,-3.82732 1.28281,-1.86591 5.81747,-10.09136 7.27191,-10.33377 0.64037,-0.10673 2.64943,2.44322 3.06186,3.06186 0.91833,1.37751 1.87113,3.65721 1.53092,5.35825 -0.65944,3.29721 -1.71777,2.03521 -3.06185,3.82732 -0.17116,0.22821 -0.11787,0.65951 -0.38273,0.76546 -0.91734,0.36693 -4.02586,0.0849 -4.59279,-0.76546 -0.63296,-0.94945 -1.02062,-2.04124 -1.53093,-3.06186 -0.75922,-1.51844 -1.39869,-1.94158 -1.14819,-3.44459 0.50297,-3.01782 2.05918,-0.61363 5.74098,0 2.91887,0.48648 5.95755,0.33526 8.80283,1.1482 0.93422,0.26692 1.74176,0.89255 2.67913,1.14819 1.40524,0.38325 3.88181,0 5.35824,0 0.72025,0 2.50685,0.31103 3.06186,-0.38273 1.15694,-1.44618 1.4093,-6.88917 1.14819,-6.88917 -1.09002,0 -0.88382,2.00438 -1.14819,3.06185 -0.62801,2.51205 -1.69666,5.43341 -1.91366,8.03737 -0.0884,1.06138 0.69651,6.11222 -1.53093,5.74098 -0.64167,-0.10694 -1.38073,-0.01 -1.91366,-0.38273 -1.90737,-1.33516 -2.20001,-2.89938 -2.67912,-4.97551 -0.0907,-0.39295 -1.00848,-4.10676 -0.76546,-4.59279 0.32668,-0.65336 0.8953,-0.38273 1.53092,-0.38273 3.33894,0 7.07238,0.43261 10.33376,-0.38273 0.51031,-0.12758 0.51031,0.25515 1.1482,0 0.955,-0.382 1.80691,-0.98579 2.67912,-1.53093 0.54093,-0.33808 1.07988,-0.69714 1.53093,-1.1482 0.77236,-0.77235 2.06258,-4.44387 1.1482,-5.35824 -0.36084,-0.36085 -1.02062,0 -1.53093,0"
       id="path4507" />
    <path
       style="fill:#f9f9f9;fill-opacity:0.779661;stroke-width:0.264583"
       d="m 171.46391,150.79639 c -14.80564,0.67298 -15.16776,-0.84519 -27.17396,4.21005 -1.53306,0.6455 -2.75598,1.87131 -4.21006,2.67913 -0.84933,0.47185 -1.81009,0.71368 -2.67912,1.14819 -3.03092,1.51546 -5.52237,3.00721 -8.80283,3.82732 -2.38071,0.59518 -2.92086,-1.00719 -4.21005,-2.29639 -1.57579,-1.57579 -3.06186,-2.36326 -3.06186,-4.97552 0,-1.27665 3.26759,-6.75202 4.21005,-6.12371 1.35939,0.90626 2.49785,2.11224 3.82732,3.06186 0.73645,0.52603 7.72022,3.94773 7.27191,5.74098 -0.90248,3.60991 -9.07514,2.29639 -10.33376,2.29639"
       id="path4509" />
    <path
       style="fill:#f9f9f9;fill-opacity:0.779661;stroke-width:0.264583"
       d="m 112.90593,157.68557 c -1.27578,3.31701 -2.39603,6.6981 -3.82732,9.95103 -0.0727,0.16514 -0.22136,-0.30205 -0.38274,-0.38274 -1.12383,-0.56192 -2.44866,-0.76483 -3.44458,-1.53092 -5.551164,-4.27013 -6.72326,-5.79188 -9.568301,-11.48196 -0.347048,-0.6941 -0.194519,-1.54354 -0.382733,-2.29639"
       id="path4511" />
    <path
       style="fill:#f9f9f9;fill-opacity:0.779661;stroke-width:0.264583"
       d="m 86.11469,156.15464 c -4.465206,-4.46521 -8.888878,-8.97234 -13.395618,-13.39562 -2.383004,-2.33888 -4.629793,-4.84754 -7.271909,-6.88918 -0.866754,-0.66976 -2.348285,1.92942 -4.592783,4.97552 -4.782015,6.48988 -2.748282,6.16752 3.82732,11.09923"
       id="path4513" />
    <path
       style="fill:#f9f9f9;fill-opacity:0.779661;stroke-width:0.264583"
       d="m 71.953609,153.09278 c -3.319516,13.17468 -0.81642,14.54382 -10.333765,14.54382"
       id="path4515" />
    <path
       style="fill:#f9f9f9;fill-opacity:0.779661;stroke-width:0.264583"
       d="M 61.619844,165.72294 C 50.201581,163.14901 71.179128,144.2629 74.632732,154.62371"
       id="path4517" />
    <path
       style="fill:#f9f9f9;fill-opacity:0.779661;stroke-width:0.264583"
       d="m 57.792524,163.04381 c -0.637887,-0.38273 -1.572474,-0.48715 -1.91366,-1.14819 -1.896758,-3.67498 -8.670634,-19.65153 -4.592783,-23.72938"
       id="path4519" />
    <path
       style="fill:#f9f9f9;fill-opacity:0.779661;stroke-width:0.264583"
       d="m 47.841495,138.16624 c -6.722668,-0.28018 -13.286854,0.97684 -12.630155,9.18556 0.119081,1.4885 0.446897,3.18308 1.530926,4.21005 1.74008,1.6485 4.362538,1.98991 6.506446,3.06186"
       id="path4521" />
    <path
       style="fill:#f9f9f9;fill-opacity:0.779661;stroke-width:0.264583"
       d="m 45.927835,155.77191 c 4.855765,20.637 4.592783,12.8352 4.592783,22.96391"
       id="path4523" />
    <path
       style="fill:#f9f9f9;fill-opacity:0.779661;stroke-width:0.264583"
       d="m 42.483246,174.14304 c 0,-3.03498 -0.147746,-8.34213 1.91366,-9.95103 3.785809,-2.95478 9.061648,-3.30685 13.778351,-4.21005 1.400905,-0.26826 2.803102,0.53097 4.210053,0.76546 0.125841,0.021 0.299704,0.0969 0.38273,0 3.564885,-4.15903 4.640876,-12.1833 1.148196,-16.84021 -0.176887,-0.23585 -7.353691,-0.38273 -8.037372,-0.38273"
       id="path4525" />
    <path
       style="fill:#f9f9f9;fill-opacity:0.779661;stroke-width:0.264583"
       d="m 39.421392,168.40206 c 5.090999,0.95949 9.755669,5.19405 14.926545,4.59278 2.2669,-0.26359 2.321693,-3.9649 3.061857,-6.12371 2.037424,-5.94248 1.735846,-11.01411 -0.382733,-16.8402 -0.234786,-0.64567 -0.34367,-1.37136 -0.765464,-1.91366 -2.45165,-3.15213 -6.22859,-1.53093 -9.568299,-1.53093"
       id="path4527" />
    <path
       style="fill:#f9f9f9;fill-opacity:0.779661;stroke-width:0.264583"
       d="m 48.606958,174.9085 c 3.34128,1.0815 5.447787,4.0897 8.420103,5.74098 1.433441,0.79636 5.867236,-4.53331 6.123712,-4.97551 4.564586,-7.86998 7.271906,-13.86048 7.271906,-22.19846"
       id="path4529" />
    <path
       style="fill:#f9f9f9;fill-opacity:0.779661;stroke-width:0.264583"
       d="m 76.546392,157.30283 c -0.917869,0 -0.314185,-0.12377 -0.765464,1.53093 -0.256897,0.94195 -1.361104,2.46622 -0.382733,3.44459 0.09021,0.0902 0.276582,-0.0708 0.382733,0 0.679696,0.45313 1.150639,1.23918 1.91366,1.53093 5.660649,2.16436 35.572512,12.10307 12.630152,-5.74098 -2.58123,-2.00763 -6.123709,-2.29639 -9.185566,-3.44459 5.376528,-4.31107 7.262396,-6.12005 12.247424,-8.03737 1.017366,-0.39129 2.11182,-0.6138 3.061856,-1.1482 1.111932,-0.62546 1.975332,-1.62776 3.061855,-2.29639 0.585111,-0.36007 1.342021,-0.38437 1.913661,-0.76546 0.47472,-0.31648 0.42314,-1.07449 0.76546,-1.53093 0.21651,-0.28867 0.67795,-0.41539 0.76547,-0.76546 0.70735,-2.8294 -1.4598,1.16172 -0.38274,-1.53093 0.45988,-1.14969 1.68293,-2.21766 2.2964,-3.44459"
       id="path4531" />
    <path
       style="fill:#f9f9f9;fill-opacity:0.779661;stroke-width:0.264583"
       d="m 97.596649,136.63531 c -2.551546,2.04123 -5.291023,3.86753 -7.654639,6.12371 -0.496964,0.47437 -0.43648,1.31052 -0.765466,1.91366 -0.440529,0.80764 -1.084149,1.49219 -1.530927,2.29639 -0.195924,0.35267 0.01521,1.08187 -0.382733,1.1482 -2.272072,0.37867 -9.563745,-8.80739 -8.037369,-10.33377"
       id="path4533" />
    <path
       style="fill:#f9f9f9;fill-opacity:0.779661;stroke-width:0.264583"
       d="m 114.43685,147.3518 c 0.95247,2.1771 5.30265,-0.0556 6.12372,0.76547 0.57054,0.57054 -0.36989,1.59314 -0.76547,2.29639 -1.54478,2.74627 -3.26377,5.39194 -4.97551,8.03737 -1.0099,1.56075 -2.2964,2.42394 -2.2964,4.21005"
       id="path4535" />
    <path
       style="fill:#f9f9f9;fill-opacity:0.779661;stroke-width:0.264583"
       d="m 114.43685,170.31572 c 1.07094,3.7014 -0.20488,2.94056 3.82732,3.44459"
       id="path4537" />
    <path
       style="fill:#f9f9f9;fill-opacity:0.779661;stroke-width:0.264583"
       d="m 128.21521,166.4884 c 1.33432,2.79866 0.66166,3.95922 3.82732,3.82732 2.42521,-0.10105 4.87078,-0.027 7.2719,-0.38273 1.07825,-0.15974 2.0498,-0.74338 3.06186,-1.1482 0.26486,-0.10595 0.58725,-0.15997 0.76546,-0.38273 0.86206,-1.07757 1.53093,-2.29639 2.29639,-3.44459"
       id="path4539" />
    <path
       style="fill:#f9f9f9;fill-opacity:0.779661;stroke-width:0.264583"
       d="m 148.11727,161.51289 c 4.33762,0.76546 8.67525,1.53092 13.01288,2.29639 0.76547,0.25515 2.52232,-0.009 2.2964,0.76546 -2.58646,8.86783 -3.35746,7.11208 -8.42011,10.33376 -1.9076,1.21393 0.43046,2.42924 -4.59278,0.38273 -4.41335,-1.79803 -8.45004,-5.18933 -12.24742,-8.03737"
       id="path4541" />
    <path
       style="fill:#f9f9f9;fill-opacity:0.779661;stroke-width:0.264583"
       d="m 148.88273,168.01933 c 3.13241,0.62648 8.92401,1.82967 10.7165,1.53093 2.41718,-0.40287 5.12226,-9.68336 4.21005,-4.21005 -0.12421,0.74524 -1.1482,2.78282 -1.1482,3.82731"
       id="path4543" />
    <path
       style="fill:#f9f9f9;fill-opacity:0.779661;stroke-width:0.264583"
       d="m 164.19201,178.35309 c 0.83999,1.06195 0.10254,2.32382 0.38273,3.44459 0.0619,0.24753 0.51031,0 0.76547,0 0.25515,0 0.58504,0.18042 0.76546,0 0.65052,-0.65052 0.95622,-1.57801 1.53093,-2.29639 1.6417,-2.05213 4.42608,-5.68417 6.88917,-7.65464 2.09408,-1.67527 0.96141,-0.57869 1.91366,-1.53093"
       id="path4545" />
    <path
       style="fill:#f9f9f9;fill-opacity:0.779661;stroke-width:0.264583"
       d="m 178.73582,168.78479 c -3.45329,-1.70646 -7.21486,-3.01907 -10.33376,-5.35824 -0.57735,-0.43302 -0.93045,-1.13061 -1.53093,-1.53093 -1.53305,-1.02204 -4.20069,-0.97087 -2.29639,-3.82732 0.7164,-1.0746 4.09277,-1.66366 5.35825,-2.29639"
       id="path4547" />
    <path
       style="fill:#f9f9f9;fill-opacity:0.779661;stroke-width:0.264583"
       d="m 184.4768,150.41366 c -1.27577,-1.1482 -2.49892,-2.35772 -3.82732,-3.44459 -0.69819,-0.57125 -1.81691,-0.11743 -2.67912,-0.38273 -3.60615,-1.10959 -5.37406,-2.19516 -7.27191,-5.35825 -0.60515,-1.00859 -1.90655,-3.15931 -0.76546,-3.44459 0.86637,-0.21659 1.78608,0 2.67912,0 4.37704,0 11.76322,1.24967 15.30928,-2.29639"
       id="path4549" />
    <path
       style="fill:#f9f9f9;fill-opacity:0.779661;stroke-width:0.264583"
       d="m 181.79768,145.43814 c -4.43169,1.77268 -1.08243,0.89361 -9.5683,-1.53093 -0.12267,-0.035 -0.25516,0 -0.38273,0 -1.53093,-0.76546 -3.06186,-1.53092 -4.59279,-2.29639 -0.76546,-0.38273 -1.69124,-0.54304 -2.29639,-1.14819 -0.58523,-0.58524 -0.45301,-1.6715 -0.76546,-2.29639 -0.20571,-0.41143 -0.62,-0.71182 -0.76546,-1.1482 -0.13582,-0.40745 -0.12577,-2.34012 0.38273,-2.67912 0.6369,-0.42461 1.56038,0.21028 2.29639,0 0.64432,-0.1841 3.27481,-1.89639 4.21005,-1.1482 0.49811,0.39849 0.69714,1.07987 1.14819,1.53093 0.20172,0.20171 0.65952,0.11786 0.76547,0.38273 0.53575,1.33938 -1.085,3.86069 -1.53093,4.97551"
       id="path4551" />
    <path
       style="fill:#f9f9f9;fill-opacity:0.779661;stroke-width:0.264583"
       d="m 256.43041,180.26675 34.82861,-1.91366"
       id="path5308" />
  </g>
</svg>
